<svg width="93" height="92" viewBox="0 0 93 92" fill="none" xmlns="http://www.w3.org/2000/svg">
<path d="M38.0362 64.0594H54.9602H38.0362ZM46.5 13.4931V17.105V13.4931ZM69.5481 23.014L66.9876 25.5676L69.5481 23.014ZM79.0948 46H75.4731H79.0948ZM17.5269 46H13.9052H17.5269ZM26.0124 25.5676L23.4519 23.014L26.0124 25.5676ZM33.6939 58.7716C31.1619 56.2458 29.4377 53.0279 28.7394 49.5248C28.0411 46.0218 28.4 42.3909 29.7707 39.0912C31.1414 35.7916 33.4623 32.9714 36.4401 30.9872C39.4179 29.003 42.9187 27.944 46.5 27.944C50.0813 27.944 53.5821 29.003 56.5599 30.9872C59.5377 32.9714 61.8586 35.7916 63.2293 39.0912C64.6 42.3909 64.9589 46.0218 64.2606 49.5248C63.5623 53.0279 61.8381 56.2458 59.3061 58.7716L57.3215 60.7473C56.1868 61.8791 55.2868 63.2227 54.6729 64.7013C54.059 66.18 53.7431 67.7648 53.7433 69.3652V71.2831C53.7433 73.199 52.9801 75.0364 51.6218 76.3911C50.2634 77.7458 48.421 78.5069 46.5 78.5069C44.579 78.5069 42.7366 77.7458 41.3782 76.3911C40.0199 75.0364 39.2567 73.199 39.2567 71.2831V69.3652C39.2567 66.1326 37.9674 63.03 35.6785 60.7473L33.6939 58.7716Z" stroke="#EC7979" stroke-width="6.83333" stroke-linecap="round" stroke-linejoin="round"/>
<path d="M91.929 46C91.929 71.0201 71.591 91.3052 46.5 91.3052C21.409 91.3052 1.07101 71.0201 1.07101 46C1.07101 20.9799 21.409 0.694824 46.5 0.694824C71.591 0.694824 91.929 20.9799 91.929 46Z" stroke="#EC7979"/>
</svg>
