<svg width="92" height="92" viewBox="0 0 92 92" fill="none" xmlns="http://www.w3.org/2000/svg">
<g id="about_icon_2">
<path id="Vector" d="M71.5732 23C73.543 23 75.432 23.7786 76.8248 25.1645C78.2176 26.5505 79.0001 28.4302 79.0001 30.3902V61.6098C79.0001 63.5698 78.2176 65.4495 76.8248 66.8355C75.432 68.2214 73.543 69 71.5732 69H20.4269C19.4516 69 18.4859 68.8088 17.5848 68.4375C16.6837 68.0661 15.865 67.5217 15.1754 66.8355C14.4857 66.1492 13.9387 65.3345 13.5654 64.4379C13.1922 63.5413 13.0001 62.5803 13.0001 61.6098V30.3902C13.0001 28.4302 13.7826 26.5505 15.1754 25.1645C16.5682 23.7786 18.4572 23 20.4269 23H71.5732ZM71.5732 27.9268H20.4269C19.7704 27.9268 19.1407 28.1863 18.6764 28.6483C18.2122 29.1103 17.9513 29.7369 17.9513 30.3902V61.6098C17.9513 62.9696 19.0604 64.0732 20.4269 64.0732H71.5732C72.2298 64.0732 72.8595 63.8137 73.3238 63.3517C73.788 62.8897 74.0489 62.2631 74.0489 61.6098V30.3902C74.0489 29.7369 73.788 29.1103 73.3238 28.6483C72.8595 28.1863 72.2298 27.9268 71.5732 27.9268ZM28.679 54.2031H63.3377C63.9649 54.2033 64.5687 54.4404 65.027 54.8665C65.4853 55.2926 65.764 55.876 65.8068 56.4986C65.8495 57.1213 65.6532 57.737 65.2573 58.2211C64.8615 58.7053 64.2957 59.0219 63.6744 59.107L63.3377 59.13H28.679C28.0518 59.1298 27.448 58.8927 26.9897 58.4666C26.5314 58.0405 26.2527 57.4571 26.2099 56.8345C26.1672 56.2118 26.3635 55.5961 26.7594 55.112C27.1552 54.6278 27.7209 54.3112 28.3423 54.2261L28.679 54.2031ZM60.8621 42.7072C61.7375 42.7072 62.5771 43.0533 63.1961 43.6693C63.8151 44.2852 64.1629 45.1207 64.1629 45.9918C64.1629 46.8629 63.8151 47.6983 63.1961 48.3143C62.5771 48.9303 61.7375 49.2763 60.8621 49.2763C59.9866 49.2763 59.147 48.9303 58.528 48.3143C57.909 47.6983 57.5612 46.8629 57.5612 45.9918C57.5612 45.1207 57.909 44.2852 58.528 43.6693C59.147 43.0533 59.9866 42.7072 60.8621 42.7072ZM41.0736 42.7072C41.949 42.7072 42.7886 43.0533 43.4076 43.6693C44.0267 44.2852 44.3744 45.1207 44.3744 45.9918C44.3744 46.8629 44.0267 47.6983 43.4076 48.3143C42.7886 48.9303 41.949 49.2763 41.0736 49.2763C40.1982 49.2763 39.3586 48.9303 38.7396 48.3143C38.1206 47.6983 37.7728 46.8629 37.7728 45.9918C37.7728 45.1207 38.1206 44.2852 38.7396 43.6693C39.3586 43.0533 40.1982 42.7072 41.0736 42.7072ZM31.1711 42.7072C32.0466 42.7072 32.8861 43.0533 33.5052 43.6693C34.1242 44.2852 34.472 45.1207 34.472 45.9918C34.472 46.8629 34.1242 47.6983 33.5052 48.3143C32.8861 48.9303 32.0466 49.2763 31.1711 49.2763C30.2957 49.2763 29.4561 48.9303 28.8371 48.3143C28.2181 47.6983 27.8703 46.8629 27.8703 45.9918C27.8703 45.1207 28.2181 44.2852 28.8371 43.6693C29.4561 43.0533 30.2957 42.7072 31.1711 42.7072ZM50.9761 42.7072C51.8515 42.7072 52.6911 43.0533 53.3101 43.6693C53.9291 44.2852 54.2769 45.1207 54.2769 45.9918C54.2769 46.8629 53.9291 47.6983 53.3101 48.3143C52.6911 48.9303 51.8515 49.2763 50.9761 49.2763C50.1007 49.2763 49.2611 48.9303 48.642 48.3143C48.023 47.6983 47.6753 46.8629 47.6753 45.9918C47.6753 45.1207 48.023 44.2852 48.642 43.6693C49.2611 43.0533 50.1007 42.7072 50.9761 42.7072ZM26.2034 32.8536C27.0788 32.8536 27.9184 33.1997 28.5374 33.8156C29.1565 34.4316 29.5042 35.2671 29.5042 36.1382C29.5042 37.0093 29.1565 37.8447 28.5374 38.4607C27.9184 39.0767 27.0788 39.4227 26.2034 39.4227C25.328 39.4227 24.4884 39.0767 23.8694 38.4607C23.2503 37.8447 22.9026 37.0093 22.9026 36.1382C22.9026 35.2671 23.2503 34.4316 23.8694 33.8156C24.4884 33.1997 25.328 32.8536 26.2034 32.8536ZM36.0894 32.8536C36.9648 32.8536 37.8044 33.1997 38.4234 33.8156C39.0424 34.4316 39.3902 35.2671 39.3902 36.1382C39.3902 37.0093 39.0424 37.8447 38.4234 38.4607C37.8044 39.0767 36.9648 39.4227 36.0894 39.4227C35.2139 39.4227 34.3744 39.0767 33.7553 38.4607C33.1363 37.8447 32.7885 37.0093 32.7885 36.1382C32.7885 35.2671 33.1363 34.4316 33.7553 33.8156C34.3744 33.1997 35.2139 32.8536 36.0894 32.8536ZM45.9918 32.8536C46.8673 32.8536 47.7068 33.1997 48.3259 33.8156C48.9449 34.4316 49.2927 35.2671 49.2927 36.1382C49.2927 37.0093 48.9449 37.8447 48.3259 38.4607C47.7068 39.0767 46.8673 39.4227 45.9918 39.4227C45.1164 39.4227 44.2768 39.0767 43.6578 38.4607C43.0388 37.8447 42.691 37.0093 42.691 36.1382C42.691 35.2671 43.0388 34.4316 43.6578 33.8156C44.2768 33.1997 45.1164 32.8536 45.9918 32.8536ZM55.8943 32.8536C56.7697 32.8536 57.6093 33.1997 58.2283 33.8156C58.8474 34.4316 59.1951 35.2671 59.1951 36.1382C59.1951 37.0093 58.8474 37.8447 58.2283 38.4607C57.6093 39.0767 56.7697 39.4227 55.8943 39.4227C55.0189 39.4227 54.1793 39.0767 53.5603 38.4607C52.9413 37.8447 52.5935 37.0093 52.5935 36.1382C52.5935 35.2671 52.9413 34.4316 53.5603 33.8156C54.1793 33.1997 55.0189 32.8536 55.8943 32.8536ZM65.7968 32.8536C66.6722 32.8536 67.5118 33.1997 68.1308 33.8156C68.7499 34.4316 69.0976 35.2671 69.0976 36.1382C69.0976 37.0093 68.7499 37.8447 68.1308 38.4607C67.5118 39.0767 66.6722 39.4227 65.7968 39.4227C64.9214 39.4227 64.0818 39.0767 63.4628 38.4607C62.8437 37.8447 62.496 37.0093 62.496 36.1382C62.496 35.2671 62.8437 34.4316 63.4628 33.8156C64.0818 33.1997 64.9214 32.8536 65.7968 32.8536Z" fill="#EC7979"/>
<circle id="Ellipse 6" cx="46.0001" cy="46" r="45.5" stroke="#EC7979"/>
</g>
</svg>
