<svg width="92" height="92" viewBox="0 0 92 92" fill="none" xmlns="http://www.w3.org/2000/svg">
<g id="about_icon_3">
<g clip-path="url(#clip0_1_181)">
<path id="Vector" d="M36.7308 78.8114C36.2572 78.6078 35.8637 78.2494 35.6123 77.7927C35.3608 77.336 35.2659 76.8071 35.3423 76.2893L39.5542 48.3575H28.3765C28.0221 48.3672 27.6703 48.2939 27.3482 48.1432C27.026 47.9925 26.7422 47.7684 26.5186 47.4882C26.2949 47.2081 26.1375 46.8793 26.0584 46.5274C25.9793 46.1754 25.9806 45.8096 26.0622 45.4583L33.0049 14.8158C33.1271 14.2885 33.4239 13.8201 33.8454 13.4895C34.2669 13.1589 34.7874 12.9864 35.3192 13.0008H58.4615C58.8072 12.9996 59.1488 13.0774 59.4612 13.2283C59.7735 13.3792 60.0488 13.5995 60.2666 13.873C60.4875 14.1495 60.6439 14.4735 60.724 14.8206C60.8042 15.1676 60.806 15.5287 60.7294 15.8765L56.7258 34.2149H67.7184C68.1521 34.214 68.5774 34.3373 68.9456 34.5706C69.3139 34.804 69.6104 35.1381 69.8012 35.5348C69.967 35.9156 70.0308 36.3343 69.9861 36.7484C69.9414 37.1624 69.7898 37.557 69.5466 37.892L39.4616 77.9629C39.2583 78.2699 38.9868 78.5238 38.6692 78.7039C38.3515 78.8841 37.9967 78.9856 37.6334 79C37.3237 78.9941 37.0178 78.9302 36.7308 78.8114ZM50.9402 38.9291L55.5687 17.7151H37.1705L31.2924 43.6433H44.9695L41.2899 67.8744L63.0899 38.9291H50.9402Z" fill="#EC7979"/>
<circle id="Ellipse 6" cx="46" cy="46" r="45.5" stroke="#EC7979"/>
</g>
</g>
<defs>
<clipPath id="clip0_1_181">
<rect width="92" height="92" rx="46" fill="white"/>
</clipPath>
</defs>
</svg>
